/* XPM */
static char *result[] = {
/* columns rows colors chars-per-pixel */
"32 32 14 1 ",
"  c gray18",
". c #2D2D2D",
"X c gray17",
"o c #2A2A2A",
"O c #2F2F2F",
"+ c gray20",
"@ c #343434",
"# c gray15",
"$ c #272727",
"% c #323232",
"& c gray16",
"* c #313131",
"= c #2C2C2C",
"- c #282828",
/* pixels */
" .XooooooX O+@@@#$%+O.oooooooX. ",
" .XoXXXXXX O++++#$%+O XX&&oooX..",
"  ..*%%%%%+%=XXX&o%@++%%#$....XX",
"  ..%++++++%XoooXX%+++++#$   .Xo",
" .$#oXXX$$oXoooo++=X    . ++  ..",
" .-$oooo#$&oooXX++XX..... ++    ",
"  *% ....=$$..%+OO..XooooXXXoX. ",
"  +@O    .##. +@   .oooooooooX. ",
"  +@@@XooooooooooooX+@@@@@@@@*##",
". %+++=ooooooooooo&o+++++++++*$#",
"XoXX O....oooooo..$$ OO XXXX$-..",
"XXXX.    .ooXXXX .$$.   XXXo$$..",
"++++O    .oX%+++  ..    +++++*$#",
"++++O ....oX*%%%........%%%%+*-$",
"      XoooooXXXXoo$#ooooXXXX  ..",
"      Xoooooooooo&##&ooooooo.   ",
"  +@@@-#@+Xo.     +@@@@@@@@@@@@@",
"  *%%%-#%*Xo..  ..%+++%%%%%%@@++",
" .Xooooooooooo. ##.  .oooooX++  ",
" .XoXXooooXXXX..##=.  XXXXoX+%  ",
"    ++XooX++++Xo##&X++++++      ",
"..  %+=ooX%+++=X$-X=++++++OOO ..",
"#$.   ..oo    ..++++O    O+++*$#",
"##=     oo.     @@@+     O+++*$#",
" .Xooooooooooooo@@@+XooooooooX. ",
"  =XXXXXXXXXXXoo+%%%o&ooXXXXX=OO",
"  +@@@@@@@@+  ooooo&##&o    +@@@",
"  %++++%%%%% .ooXXXo--XX  . %%++",
"      Xooooooooo    +@@@ .oooX. ",
"......oo&&XXXXXX    ++%%..ooXX. ",
"oooooooo#$%+++ .      XXoooo..  ",
"oooooooo#$%@@+O      .oooooo.   "
};
