/* XPM */
static char *_dbde5c819b846d1be3ac8c151c621927pgdP2DlTDLzf7pk[] = {
/* columns rows colors chars-per-pixel */
"32 32 106 2 ",
"   c #000000",
".  c #0E0E0E",
"X  c #121212",
"o  c #191919",
"O  c #272727",
"+  c #2B2B2B",
"@  c #353535",
"#  c gray23",
"$  c #434343",
"%  c #656565",
"&  c #6D6E6D",
"*  c #747574",
"=  c #7F7F7F",
"-  c #FF2D2D",
";  c #F63434",
":  c #FF3232",
">  c #F53B3B",
",  c #FE3939",
"<  c #BB5F5F",
"1  c #9C7676",
"2  c #BB6464",
"3  c #BB6B6B",
"4  c #A67777",
"5  c #BA7B7B",
"6  c #CE5D5D",
"7  c #ED4343",
"8  c #EB4949",
"9  c #FA4444",
"0  c #FF4C4C",
"q  c #ED5353",
"w  c #EC5C5C",
"e  c #FF5353",
"r  c #FF5D5D",
"t  c #C16666",
"y  c #C26B6B",
"u  c #CE6969",
"i  c #EC6161",
"p  c #FF6363",
"a  c #F66E6E",
"s  c #FF6C6C",
"d  c #F77474",
"f  c #FF7373",
"g  c #F67878",
"h  c #FF7878",
"j  c #848484",
"k  c #878A8A",
"l  c #8A8A8A",
"z  c #939393",
"x  c #9B9C9B",
"c  c #A78080",
"v  c #B78787",
"b  c #AD9090",
"n  c #BB9797",
"m  c #B39C9B",
"M  c #BB9999",
"N  c #A2A3A2",
"B  c #ABACAB",
"V  c #BCA5A5",
"C  c #B1ADAC",
"Z  c #AFB0AF",
"A  c #AFB1B0",
"S  c #B3B4B3",
"D  c #B9B1B0",
"F  c #BCBCBC",
"G  c #C28787",
"H  c #D88181",
"J  c #DA8F8F",
"K  c #C39E9E",
"L  c #FF8787",
"P  c #FF8B8B",
"I  c #FF9595",
"U  c #C2AEAE",
"Y  c #C9ACAC",
"T  c #C3B4B4",
"R  c #CCB0B0",
"E  c #C0BABA",
"W  c #C8BDBD",
"Q  c #FFA3A3",
"!  c #F7B5B5",
"~  c #FFBABA",
"^  c #BDC0C0",
"/  c #C2C2C2",
"(  c #C3C5C5",
")  c gray77",
"_  c #C8C6C6",
"`  c #CDC4C4",
"'  c #CACACA",
"]  c #CDCDCD",
"[  c LightGray",
"{  c gray84",
"}  c #D8D8D8",
"|  c #F9C5C5",
" . c #FFC6C6",
".. c #FACBCA",
"X. c #FFC9C9",
"o. c #FBCFCF",
"O. c #FFCCCC",
"+. c #FFD1D1",
"@. c #F7F2F2",
"#. c gray97",
"$. c #F8F7F7",
"%. c #F7F9F9",
"&. c gray98",
"*. c #FFFBFB",
"=. c #FBFCFC",
"-. c white",
/* pixels */
"N N N N x x x N N N N N z z z z l l l l l l z z x x x x x x x x ",
"N N N N x x x N N N N N z z z z l l l l l l z z x x x x x x x x ",
"N N N N x x x x N N N N z z z z l l l l l z z z x x x x x x x x ",
"N N N x x x x x N N N N x x x x x x x x x x x x x x x x x x z z ",
"x x x x x x x x x x x N B B B B F F F F F F F S N x x x z z z z ",
"x x x l l l l l l l l l x B B S / / F B B B B N l l l l l z z z ",
"x x x @ X X X X X X X X # N B S F ) z o o o o X X X X X % z z z ",
"x x z O                 + S F F ) ' l                   % x x x ",
"x x z O                 @ ] { { ] [ z                   & B B B ",
"x x z @ . X X X X X X . $ [ } } [ [ x X X X X X . . . . * B B B ",
"x x x z N N N N B B B B F } } } [ [ ) B B B B B x x x x N B B B ",
"N N N B ) ' ' ' ' ' ' ] { { { [ ' ' ' ] [ [ [ ] F F F S B B B B ",
"F F F F ) ) ) / F F F F ) ) ) / S S S F ' ] ] ) S B B B B B B B ",
"F F F F ) ) ) / F F F F / / / F S S S S ' ] ] ) Z B B B B B B B ",
"F F F F / ) ) / F F F F / / / ^ S A A S ' ] ] ) A B B B B B B B ",
"F F E T / / / T M n V E ' ] ` Y K K E / ) _ Y K m C C S D C A B ",
"( R w P #.#.%.! > ; a @.&.=.o.9 , 9 ..&.$.@.d ; g #.#.%.| w K F ",
"W i - L -.-.-.~ : - s *.-.-.+., - , O.-.-.-.f - h -.-.-.X., q U ",
"J , - L -.-.-.~ : - s -.-.-.+., : , O.-.-.-.f - h -.-.-.X., : H ",
"w : - f X.X.O.I : - r  .X.X.Q , : , Q X.X. .p - p X.X.X.Q , : q ",
"> : : , , , , , : : : , , , , : : : , , , , : : : , , , , : : > ",
": : : : : : : : : : : : : : : : : : : : : : : : : : : : : : : : ",
": : : : : : : : : : : : : : : : : : : : : : : : : : : : : : : : ",
", : : : - - - - : : : - - - - : : : - - - - : : - - - - - : : ; ",
"8 - - e L L P s : : 0 L L P h , : : h L L L 0 - 0 L L P f , : 7 ",
"u : - L -.-.-.~ : - s -.-.-.+., : , O.-.-.-.f - h -.-.-.X., : 6 ",
"b 7 - L -.-.-.~ : - s *.-.-.+., : , O.-.-.-.f - h -.-.-.X., > c ",
"x 5 > L -.-.-.~ : - s -.-.-.+., - , O.-.-.-.f - h -.-.-.X.> 3 z ",
"l l 1 v F F F M 2 < 5 F F F V 2 t y U / F F 5 < G / ) ) V 4 l l ",
"j j j j = = = = j j j j j j j k z z z l j j j k z z z z l k l l ",
"j j j j 1 = = j j j j j j j j l z z z z l j j l z z z z l l l l ",
"j j j j = = = j j j j j j j j l z z z z j j j l z z z z l l l l "
};
