/* XPM */
static char *_3b02e8c3d534ebec29af21f7f8f22e4lEpgzvLNTkoH8vYi[] = {
/* columns rows colors chars-per-pixel */
"32 32 196 2 ",
"   c #000000",
".  c gray6",
"X  c #131313",
"o  c #191919",
"O  c gray15",
"+  c #2D2D2D",
"@  c #343434",
"#  c gray23",
"$  c #3D3A48",
"%  c #3C3E60",
"&  c #5E3A4F",
"*  c #4E3C53",
"=  c #384050",
"-  c #3C4768",
";  c #364D70",
":  c #38667D",
">  c #464646",
",  c #474949",
"<  c #4B4B4B",
"1  c #534A4E",
"2  c #4F4C58",
"3  c #584A54",
"4  c #4F5055",
"5  c #545454",
"6  c #535258",
"7  c #5B5B5B",
"8  c #6E434F",
"9  c #7B434B",
"0  c #7B4B4C",
"q  c #614557",
"w  c #4F4F66",
"e  c #41546A",
"r  c #565665",
"t  c #495E7D",
"y  c #5E5B71",
"u  c #605460",
"i  c #625C64",
"p  c #735663",
"a  c #605F70",
"s  c #5F656C",
"d  c #4E667F",
"f  c #586E7B",
"g  c #636363",
"h  c #66626E",
"j  c #60696A",
"k  c #6B6B6B",
"l  c #76636C",
"z  c #6F6575",
"x  c #746A74",
"c  c #757676",
"v  c #777A7F",
"b  c #7D7D7D",
"n  c #AF3C3C",
"m  c #CA3539",
"M  c #F53131",
"N  c #F73B3B",
"B  c #833D4A",
"V  c #953540",
"C  c #B83940",
"Z  c #9D454A",
"A  c #954A52",
"S  c #90585E",
"D  c #AF4242",
"F  c #B14343",
"G  c #855463",
"H  c #8C6670",
"J  c #916D73",
"K  c #827B7F",
"L  c #C74246",
"P  c #DD4D4E",
"I  c #CD5455",
"U  c #E05E5D",
"Y  c #C75E61",
"T  c #CA6165",
"R  c #C06F72",
"E  c #C87979",
"W  c #F76A6A",
"Q  c #3D6E87",
"!  c #366888",
"~  c #377B9C",
"^  c #466989",
"/  c #457689",
"(  c #5C7E8D",
")  c #447C93",
"_  c #557A99",
"`  c #6D7E84",
"'  c #6B798E",
"]  c #747685",
"[  c #7E7F82",
"{  c #767B8B",
"}  c #627C94",
"|  c #3D829F",
" . c #468799",
".. c #7D8184",
"X. c #74838E",
"o. c #7A838A",
"O. c #648295",
"+. c #768191",
"@. c #568FA1",
"#. c #5097A7",
"$. c #6189A4",
"%. c #6C8BA3",
"&. c #6A91AD",
"*. c #7B96A7",
"=. c #7594AC",
"-. c #7B98AE",
";. c #5DA0B1",
":. c #75A1AD",
">. c #7FA2B6",
",. c #7AA7C0",
"<. c #7EA9C1",
"1. c #6BB7CD",
"2. c #76B5C9",
"3. c #858585",
"4. c #888087",
"5. c #8B8189",
"6. c #8A8A8A",
"7. c #8B8A92",
"8. c #8D8E9E",
"9. c #968891",
"0. c #939393",
"q. c #95939A",
"w. c #9C9C9C",
"e. c #A88383",
"r. c #B58C8C",
"t. c #A68C92",
"y. c #888DA8",
"u. c #8A9AA9",
"i. c #9A9DA3",
"p. c #A699A3",
"a. c #98A7AA",
"s. c #9BA6AE",
"d. c #83ABB4",
"f. c #9BA6B1",
"g. c #9FADB7",
"h. c #8FB0B0",
"j. c #A2A2A2",
"k. c #ACA5A4",
"l. c #A6A8A9",
"z. c #ABACAB",
"x. c #B9ABAB",
"c. c #AFB0AF",
"v. c #ABB1B8",
"b. c #B3B3B3",
"n. c #B9B5B5",
"m. c #B5B8B9",
"M. c #BBBBBB",
"N. c #CF9297",
"B. c #CBA7AB",
"V. c #D6A2A2",
"C. c #D5AFB5",
"Z. c #CEB1B4",
"A. c #F9B0B0",
"S. c #88A8C0",
"D. c #89B5C6",
"F. c #93B4C4",
"G. c #94BAC5",
"H. c #BABDC1",
"J. c #90C3CF",
"K. c #BAC7C8",
"L. c #AFC8D1",
"P. c #AED3DE",
"I. c #B8E0DF",
"U. c #BADCE4",
"Y. c #BCE8E9",
"T. c #B8EEF0",
"R. c #C4C4C4",
"E. c #C9C6C7",
"W. c #CBCBCB",
"Q. c #D0C7CA",
"!. c #C7C9D4",
"~. c #D0CCD2",
"^. c #C2D2D4",
"/. c #CDD0D0",
"(. c #D3D3D3",
"). c #DADADA",
"_. c #E9CAC9",
"`. c #F3C3C4",
"'. c #E6D7D8",
"]. c #F5DDDD",
"[. c #DEDEE1",
"{. c #CAE4E8",
"}. c #D2EBEE",
"|. c #CFECF1",
" X c #C7F3F1",
".X c #CBF4F7",
"XX c #D2F6F6",
"oX c #DBF5F5",
"OX c gray89",
"+X c #EDEDED",
"@X c #FFE4E4",
"#X c #F7EBEB",
"$X c #EDEFF0",
"%X c #F3F2F2",
"&X c #F6F7F8",
"*X c #FFFEFE",
/* pixels */
"j.j.j.j.w.w.w.j.j.j.j.j.q.0.0.0.6.6.6.6.6.0.0.0.w.w.w.w.w.w.w.w.",
"j.j.j.j.w.w.w.j.j.j.j.j.q.0.0.0.6.6.6.6.6.6.0.0.w.w.w.w.w.w.w.w.",
"j.j.j.j.w.w.w.w.j.j.j.j.q.0.0.0.6.6.6.6.6.0.0.0.w.w.w.w.w.w.w.w.",
"j.j.j.w.w.w.w.w.j.j.j.j.w.w.w.w.w.w.w.w.w.w.w.w.w.w.w.w.w.w.q.q.",
"w.w.w.w.w.w.w.w.w.w.w.j.l.l.l.z.m.M.M.M.M.M.M.m.j.w.w.w.q.0.0.0.",
"w.w.w.6.6.6.6.6.6.6.6.6.w.l.z.b.R.R.M.z.l.l.l.j.6.6.6.6.6.0.0.0.",
"w.w.q.@ X X X X X X X X # j.z.b.Z.R.0.o o o o X X X X X g q.0.0.",
"w.w.q.O                 + b.m.M.R.W.6.                  g w.w.w.",
"w.w.q.O                 @ W.).).W.(.0.                  k z.l.l.",
"w.w.q.@ . X X X X X X . > (.).).(.(.w.X X X X X X X X X c z.z.l.",
"w.w.w.0.j.l.l.l.l.l.l.z.M.).).).(.(.R.z.z.z.z.l.w.w.w.w.j.z.z.l.",
"j.j.j.z.R.W.W.W.W.W.W.W.).).).(.W.W.W.W.(.(.(.W.M.m.m.n.z.z.z.z.",
"m.m.m.m.R.R.R.R.M.M.M.M.R.R.R.R.m.b.b.m.W.W.W.R.b.z.z.z.z.z.z.z.",
"m.m.M.M.R.R.v.g.f.s.f.v.R.R.R.M.b.b.b.m.E.W.W.R.c.z.z.z.z.z.z.z.",
"M.M.M.m.u.u.&.2.2.D.F.} y.q.R.M.b.b.b.m.W.W.W.R.b.z.z.z.z.z.z.l.",
"M.Z.m.=.<.U.U..X.XXXoXJ.1.^ 8.M.m.m.m.m.b.z.z.l.w.q.q.w.l.c.c.z.",
"R.H.=.<.|.oXY.Y.Y.T.G.:.#.Q ] R.W.W.W.b.k 7 7 7 5 5 5 g l.m.m.m.",
"H.-.<.{.I.a.v ` f @. .s i.j.m.E.W.W.(.m.k 5 , > 5 5 5 k z.M.M.m.",
"&.,.L.7.7.z.b.h $ = e H.&X&X+XW.W./.+X%XOX).c , m.OXOXOXW.m.m.m.",
"%.>.{ p.7.r i 3 0 9 J *X*X*X#XV.V.V.#X*X*X*Xe.0 Q.*X*X*XW.b.b.b.",
"l.a.R N.y % - * C m Y W.~.W.Z.L m L B.E.W.W.T V z [.*X*XM.q.q.q.",
"l.k.I & ; ! ~ ~ ) ) / t w 3 i 1 8 A 5.x x 4.l r - x ].@Xx.6.0.0.",
"l.k.P G ' O.( ! | | : ' ] v K 9 B Z 9.4.4.q.S q - 9.].@Xx.6.0.0.",
"l.l.U A.$X%X'.h 6 2 H Q.i.s.B.N M N `.%X%X%XW m t.&X*X*Xn.6.0.0.",
"j.j.r.C.y.!.W.u 5 1 H ]  .Q p D n F _.*X*X*XE n _.*X*X*Xn.0.0.0.",
"w.w.j.u.~ ^ a i , j a.L.2.d q.4 > < R.%X+X+Xb , K.%X+X+Xb.0.0.0.",
"+.{ v ] ;.2.d.h.u.L. XL.t 2 7 , > , 7 g g g < > 7 g g k 6.0.0.0.",
"_ S.^.^.{.XXXXXXXXoXP._ r 5 5 5 5 5 5 5 5 5 5 5 5 5 5 7 3.0.0.0.",
"X.$.F.D.|.}.|.}.G.F.$.` b b b b 3.3.3.3.b b b b 3.6.6.6.6.6.6.6.",
"3...o.} -.*.-.-.O.o.o.3.3.3.3.6.0.q.q.0.6.3.3.6.0.q.q.0.6.6.6.6.",
"3.3.3.3.[ [ [ ..3.3.3.3.3.3.3.6.0.0.0.0.6.3.3.6.0.q.q.0.6.6.6.6.",
"3.3.3.3.b b b 3.3.3.3.3.3.3.3.6.0.0.0.0.3.3.3.3.0.q.q.0.6.3.3.6."
};
