/* XPM */
static char *result[] = {
/* columns rows colors chars-per-pixel */
"32 32 35 1 ",
"  c gray50",
". c #7E7E7E",
"X c #767676",
"o c gray46",
"O c #818181",
"+ c #8E8E8E",
"@ c #909090",
"# c #686868",
"$ c #6C6C6C",
"% c gray54",
"& c #777777",
"* c gray55",
"= c #8D8D8D",
"- c DimGray",
"; c gray45",
": c #898989",
"> c #8B8B8B",
", c gray48",
"< c gray47",
"1 c #727272",
"2 c gray56",
"3 c #6A6A6A",
"4 c #6D6D6D",
"5 c gray49",
"6 c #7C7C7C",
"7 c #747474",
"8 c #808080",
"9 c gray42",
"0 c #797979",
"q c gray43",
"w c #7B7B7B",
"e c gray53",
"r c #6F6F6F",
"t c #888888",
"y c gray51",
/* pixels */
" .XooooooX O+@@@#$%+O.oooooooX. ",
" .XoXXXXX& O*===-$%+O &X;;oooX..",
"  ..:>>>>>=>,<<<1o>2=*>>345556XX",
"  ..>===**=>X777X<%=+++=3488 .Xo",
" .437XXX9$oX7777+*0& 88858+=8 ..",
" .q97ooo3917ooXX+*<X.....8=*    ",
" 8:> ...5w996.%*OO.5XooooX&&o&. ",
" 8=2O    53358=2   .o77777777X. ",
" 8=222<777777777777X=22222222:3#",
". %==+0ooo777777oo;o*+++===**e43",
"Xo&&8O...5o77777.5$9 OO8&&&X4r65",
"&XXX.    .o7XXXX 549.   XXXo$465",
"====O 88 .oX>===  .5    ====*e$3",
"===*O ..56oX:>>>5566555.>>>>=tq9",
"8888  Xooo77XXXXo7937oooXXX& 8.5",
"      X7777777777;--;777777o.   ",
" 8=222q#@=&o.    8=2222222222222",
" 8:>>>r3>:Xo55  65>===>>>>>>22==",
" .X77777777777. #36  .o7777X==8 ",
" .&oX&7777X&&&5.#3w.8 &&&Xo&*>8 ",
"    *+<77&*++=<o#-;X=++++*  88  ",
"66  >=0o7&>===0X4qX0*====*yOO866",
"396 88..7o 888..**=*O8888y+++:$3",
"#3w     7o.     222+8    O+++:9-",
" .X7777777777777222=X77777777X. ",
"  0<<<<<<<<<XX77*>>%7;77XXXX<0OO",
" 8=22222222+8 o7777;-3;7   8+222",
" 8>===*>>>>% 5o7XXXoqr&<  . %>==",
"      X777777777   8+222 .777X. ",
"......o71;<<<<XX   8**>>.677X&. ",
"oooooo77-$%===8.    8 &Xoo7o..  ",
"77777777#$>22+y888888.o7777o.   "
};
