/* XPM */
static char *_9db43d604294441fcd0b02d36074a5f5xmy9sW9SNo6gWLr[] = {
/* columns rows colors chars-per-pixel */
"32 32 181 2 ",
"   c gray18",
".  c #2D2D2D",
"X  c gray17",
"o  c #2A2A2A",
"O  c #2F2F2F",
"+  c gray20",
"@  c #343434",
"#  c gray15",
"$  c #272727",
"%  c #323232",
"&  c gray16",
"*  c #313131",
"=  c #2C2C2C",
"-  c #282828",
";  c #1B302D",
":  c #0C3730",
">  c #0F362F",
",  c #252D2C",
"<  c #252828",
"1  c #222A29",
"2  c #304542",
"3  c #395C57",
"4  c #375753",
"5  c #2B3836",
"6  c #1D2C2A",
"7  c #0E362F",
"8  c #7E9591",
"9  c #F0F2F2",
"0  c #D9DFDE",
"q  c #3B5B57",
"w  c #0E3630",
"e  c #67827E",
"r  c white",
"t  c #D1FBF3",
"y  c #A2F6E7",
"u  c #E8FDF9",
"i  c #E9FDF9",
"p  c #F0FEFB",
"a  c #DDEEEB",
"s  c #418075",
"d  c #156054",
"f  c #2A3533",
"g  c #2C3533",
"h  c #282B2A",
"j  c #202F2C",
"k  c #9AB0AD",
"l  c #EEFDFB",
"z  c #C8FAF1",
"x  c #C2F9EF",
"c  c #ABF7EA",
"v  c #95F3E3",
"b  c #4EE6CB",
"n  c #3AE2C5",
"m  c #0D3831",
"M  c #133631",
"N  c #272F2E",
"B  c #D1FAF3",
"V  c #BAF8ED",
"C  c #83F3E0",
"Z  c #4AEDD1",
"A  c #133530",
"S  c #28302E",
"D  c #E5FDF8",
"F  c #C5F9F0",
"G  c #C3F9F0",
"H  c #E0FCF7",
"J  c #AAF6E9",
"K  c #87F3E0",
"L  c #58EED4",
"P  c #1E8A77",
"I  c #1E7969",
"U  c #21312F",
"Y  c #DCFCF6",
"T  c #E5FCF8",
"R  c #C4F9F0",
"E  c #65F0D8",
"W  c #30DBBD",
"Q  c #29BCA3",
"!  c #143530",
"~  c #18332F",
"^  c #324B48",
"/  c #9EAFAC",
"(  c #CEFAF2",
")  c #DEFCF7",
"_  c #CAFAF2",
"`  c #B6F8ED",
"'  c #ACF7EA",
"]  c #A5F6E8",
"[  c #99EFE1",
"{  c #47C2AD",
"}  c #30B59E",
"|  c #41E6CA",
" . c #37C6AD",
".. c #14352F",
"X. c #395C56",
"o. c #EFF2F2",
"O. c #C3F9EF",
"+. c #F9FEFD",
"@. c #C2F9F0",
"#. c #8CF4E2",
"$. c #81EBD9",
"%. c #36A895",
"&. c #209581",
"*. c #3FCFB7",
"=. c #16463E",
"-. c #262D2C",
";. c #2A2B2B",
":. c #AEF5E8",
">. c #B1F2E6",
",. c #9FF3E4",
"<. c #41D7BD",
"1. c #3DD4BA",
"2. c #24A48E",
"3. c #242D2B",
"4. c #CAFAF1",
"5. c #98ECDD",
"6. c #45D4BB",
"7. c #69E4CF",
"8. c #228C7B",
"9. c #228C7A",
"0. c #1A7566",
"q. c #A0F5E7",
"w. c #79EBD7",
"e. c #37D9BD",
"r. c #4ED5BE",
"t. c #65D2BF",
"y. c #5ECEBA",
"u. c #31B29B",
"i. c #25AA93",
"p. c #219985",
"a. c #197162",
"s. c #2A3332",
"d. c #35C1A9",
"f. c #229B86",
"g. c #2AC2A8",
"h. c #2CCDB1",
"j. c #2AC3A8",
"k. c #1B7E6D",
"l. c #2F4441",
"z. c #809592",
"x. c #42D8BE",
"c. c #33B59F",
"v. c #2DB39C",
"b. c #26B199",
"n. c #26B098",
"m. c #24A791",
"M. c #24A58F",
"N. c #28BAA1",
"B. c #185A4E",
"V. c #1B312E",
"C. c #272C2C",
"Z. c #242C2B",
"A. c #0F3731",
"S. c #39C3AB",
"D. c #1B7B6B",
"F. c #2BC5AA",
"G. c #1F8C79",
"H. c #163631",
"J. c #2FBCA3",
"K. c #2B2D2D",
"L. c #232D2B",
"P. c #197263",
"I. c #1F8F7C",
"U. c #26AE96",
"Y. c #2BC7AC",
"T. c #114F45",
"R. c #154940",
"E. c #14584D",
"W. c #24AA93",
"Q. c #2AC4A9",
"!. c #29BFA5",
"~. c #219A85",
"^. c #0E3731",
"/. c #1D3733",
"(. c #10493F",
"). c #114E44",
"_. c #125348",
"`. c #125247",
"'. c #104B41",
"]. c #252C2B",
"[. c #1F2F2D",
/* pixels */
"  . X o o o o o o X   O + @ @ @ # $ % + O . o o o o o o o X .   ",
"  . X o X X X X X X   O + + + + # $ % + O   X X & & o o o X . . ",
"    . . * % % % % % + % = X X X & o % @ + + % % # $ . . . . X X ",
"    . . % + + + + + + % X o o o X X % + + + + + # $       . X o ",
"  . $ # o X X X $ $ o X o o o o + + = X         .   + +     . . ",
"  . - $ o o o o # $ & o ; : : : : : > , . . . . .   + +         ",
"    * %   . . . . = < 1 2 3 3 3 3 3 4 5 , o o o o X X X o X .   ",
"    + @ O         . 6 7 8 9 9 9 9 9 0 q w o o o o o o o o X .   ",
"    + @ @ @ X o o : e r t y u u i p a s d f g @ @ @ @ @ @ * # # ",
".   % + + + = h j e k l z y y y x c v b n m M + + + + + + * $ # ",
"X o X X   O . N w r l B V y y y l C Z Z Z m A   X X X X $ - . . ",
"X X X X .     S w r D V F t G V H J K L Z P I U X X X o $ $ . . ",
"+ + + + O     S w r Y y t r T B B B R E Z W Q ! + + + + + * $ # ",
"+ + + + O   ~ ^ / R ( ) _ ` ' ] ] ] [ { } |  ...% % % % + * - $ ",
"            : X.o.y O.+.@.#.#.#.#.#.$.%.&.Z *.=.-.;.X X     . . ",
"            : X.o.' :.>.,.#.#.#.#.#.$.%.&.<.1.2.: 3.o o .       ",
"    + @ @ @ : X.o.4.5.6.7.#.#.#.#.#.$.%.&.8.9.0.: g @ @ @ @ @ @ ",
"    * % % % : X.o.q.w.e.r.t.t.t.t.t.y.u.i.p.&.a.: s.% % @ @ + + ",
"  . X o o o : X.o.Z Z Z d.&.&.&.&.&.f.g.h.h.j.k.: 3.o X + +     ",
"  . X o X X ; l.z.Z x.c.v.b.b.b.b.b.n.m.M.h.N.B.V.C.o X + %     ",
"        + + X Z.A.Z S.D.2.h.h.h.h.h.F.G.D.h.b.H.+ +             ",
". .     % + = Z.w n J.D.2.h.h.h.h.h.F.G.D.i.&.H.+ + O O O   . . ",
"# $ .       . K.L.d P.I.U.h.h.h.h.h.Y.f.I.T.R.S   O + + + * $ # ",
"# # =           o w E.I.W.Q.Q.Q.Q.Q.!.~.I.^.!     O + + + * $ # ",
"  . X o o o o o o Z./.(.)._._._._._.`.'.(.Z.].o o o o o o X .   ",
"    = X X X X X X X [.: : : : : : : : : : & o o X X X X X = O O ",
"    + @ @ @ @ @ @ @ @ +     o o o o o & # # & o         + @ @ @ ",
"    % + + + + % % % % %   . o o X X X o - - X X     .   % % + + ",
"            X o o o o o o o o o         + @ @ @   . o o o X .   ",
". . . . . . o o & & X X X X X X         + + % % . . o o X X .   ",
"o o o o o o o o # $ % + + +   .             X X o o o o . .     ",
"o o o o o o o o # $ % @ @ + O             . o o o o o o .       "
};
