/* XPM */
static char *_02c6699c89c4fb5a0de4f82477308fcKSNw85WENS5YZTy6[] = {
/* columns rows colors chars-per-pixel */
"32 32 68 1 ",
"  c #14002F",
". c #170331",
"X c #160230",
"o c #1F0D37",
"O c #1B0934",
"+ c #180432",
"@ c #1B0834",
"# c #14012F",
"$ c #1F0C36",
"% c #190632",
"& c #17042F",
"* c #1C0935",
"= c #15012F",
"- c #160331",
"; c #15012E",
": c #16052D",
"> c #16062D",
", c #16042D",
"< c #170431",
"1 c #190733",
"2 c #1F0E36",
"3 c #1A0930",
"4 c #180431",
"5 c #16042F",
"6 c #150330",
"7 c #16032F",
"8 c #17052E",
"9 c #150130",
"0 c #15032E",
"q c #17062C",
"w c #16022F",
"e c #1D0B36",
"r c #200D37",
"t c #1D0A35",
"y c #1F0D36",
"u c #180532",
"i c #18062F",
"p c #180430",
"a c #2A2A2A",
"s c gray15",
"d c #272727",
"f c gray16",
"g c gray17",
"h c gray20",
"j c #2D2D2D",
"k c gray18",
"l c #1A0733",
"z c #2C2C2C",
"x c #323232",
"c c #2F2F2F",
"v c #200E37",
"b c #15022E",
"n c #343434",
"m c #180531",
"M c #1E0C34",
"N c #1B0833",
"B c #1B0A31",
"V c #1D0B35",
"C c #18072E",
"Z c #313131",
"A c #1E0C36",
"S c #282828",
"D c #150230",
"F c #1E0B36",
"G c #1C0A35",
"H c #1A0633",
"J c #190633",
"K c #190532",
/* pixels */
"     .    XoO+  @.              ",
"  ##X$% &# +*@=-$-     %=   #   ",
" ;:>,<-123:,,   X <   4oX  :,=--",
"X5678# 9<;000    <o.   .  ;qwert",
"ooyoyu            .        0 +-=",
"ip.<.aaasdfaaagghhggjjjjjkh  l# ",
"#  0 jjjjzddjjxhccjjgaaaagg -v- ",
"9l b kkkkjssjkhnkkkjaaaaaaa Xvm ",
"-oX  ngaaaaaaaaaaaaghnnnnnn #MN ",
" <   hzaaaaaaaaaaafahhhhhhh bBV ",
"l%   cjjjjaaaaaajjddkcckggg bCo.",
"o+   kkkkjaaggggkjddjkkkggg b:u9",
"l    kkkkjagxhhhkkjjkkkkhhh     ",
"     kjjjjagZxxxjjjjjjjjxxx     ",
"     kgaaaaaggggaadsaaaaggg     ",
"   X kgaaaaaaaaaafssfaaaaaa  .  ",
"  XA.nSsnhgajkkkkkhnnnnnnnn lV9 ",
"   < xSsxZgajjkkjjxhhhxxxxxDo%  ",
"     aaaaaaaaajkssjkkjaaaaa-F9  ",
" #X  gaaaaggggjjsszjkkgggga 9 =@",
"=VG= hgaaghhhhgassfghhhhhhk   9t",
"XVX  hzaagxhhhzgdSgzhhhhhhc    9",
" 9   kjjaakkkkjjhhhhckkkkch     ",
"  =  kkkaajkkkkknnnhkkkkkch     ",
"  ll aaaaaaaaaaannnhgaaaaaa     ",
"  %F=gggggggggaahxxxafaaggg =-%<",
"  XoHnnnnnnhkkaaaaafssfakkk<Foe<",
"=  .+                      uFAl<",
"Ft.           =.u           9%*A",
"u%9=u       XJFr*=       D.X   9",
"   <o.   D%GoFH-      XKtooO=   ",
"   =VAu  lt@.=       DoA@<D#    "
};
