/* XPM */
static char *result[] = {
/* columns rows colors chars-per-pixel */
"32 32 75 1 ",
"  c #14002F",
". c #170331",
"X c #160230",
"o c #1F0D37",
"O c #1B0934",
"+ c #180432",
"@ c #1B0834",
"# c #14012F",
"$ c #1F0C36",
"% c #190632",
"& c #17042F",
"* c #1C0935",
"= c #15012F",
"- c #160331",
"; c #15012E",
": c #16052D",
"> c #16062D",
", c #16042D",
"< c #170431",
"1 c #190733",
"2 c #1F0E36",
"3 c #1A0930",
"4 c #180431",
"5 c #16042F",
"6 c #150330",
"7 c #16032F",
"8 c #17052E",
"9 c #150130",
"0 c #15032E",
"q c #17062C",
"w c #16022F",
"e c #1D0B36",
"r c #200D37",
"t c #1D0A35",
"y c #1F0D36",
"u c #180532",
"i c #18062F",
"p c #180430",
"a c #5205BC",
"s c #4C03BC",
"d c #7417D2",
"f c #6C12CE",
"g c #5204BF",
"h c #5C09C6",
"j c #3C00AC",
"k c #640CCA",
"l c #7A1CD4",
"z c #1A0733",
"x c #5A07C4",
"c c #8B2DDC",
"v c #3800A4",
"b c #4401B4",
"n c #200E37",
"m c #15022E",
"M c #180531",
"N c #8425D9",
"B c #5405C1",
"V c #1E0C34",
"C c #1B0833",
"Z c #1B0A31",
"A c #1D0B35",
"S c #37009C",
"D c #18072E",
"F c #7519D3",
"G c #AA54E6",
"H c #1E0C36",
"J c #150230",
"K c #1E0B36",
"L c #1C0A35",
"P c #9234DE",
"I c #1A0633",
"U c #3C00AB",
"Y c #3800A3",
"T c #190633",
"R c #190532",
/* pixels */
"     .    XoO+  @.              ",
"  ##X$% &# +*@=-$-     %=   #   ",
" ;:>,<-123:,,   X <   4oX  :,=--",
"X5678# 9<;000    <o.   .  ;qwert",
"ooyoyu            .        0 +-=",
"ip.<.assddffgghhjjsskksshhl  z# ",
"#  0 xccccssjjssvvjjggjjbbl -n- ",
"9z m xccccssjjssvvjjggjjbbl XnM ",
"-oX  fNNbbvvbbBBxxsskkssvvj #VC ",
" <   fNNbbvvbbBBxxsskkssvvj mZA ",
"z%   hggjjbbffxxcckkddNNssS mDo.",
"o+   hggjjbbffxxcckkddNNssS m:u9",
"z    hggbbxxhhFFNNcckkffFFs     ",
"     hggbbxxhhFFNNcckkffFFs     ",
"     lhhjjbbkkGGkkBBffkkffB     ",
"   X lhhjjbbkkGGkkBBffkkffB  .  ",
"  XH.NhhjjbbhhNNjjbbbbkkccf zA9 ",
"   < NhhjjbbhhNNjjbbbbkkccfJo%  ",
"     BssssbbbbssssSSssddddb-K9  ",
" #X  BssssbbbbssssSSssddddb 9 =@",
"=AL= kBBjjjjssvvvvjjbbsskkh   9t",
"XAX  kBBjjjjssvvvvjjbbsskkh    9",
" 9   kcchhjjssbbjjbbssffcck     ",
"  =  kcchhjjssbbjjbbssffcck     ",
"  zz bffcchhbbxxhhsskkPPhhv     ",
"  %K=bffcchhbbxxhhsskkPPhhv =-%<",
"  XoIUbbllllxxllffBBllxxjjY<Koe<",
"=  .+                      uKHz<",
"Kt.           =.u           9%*H",
"u%9=u       XTKr*=       J.X   9",
"   <o.   J%LoKI-      XRtooO=   ",
"   =AHu  zt@.=       JoH@<J#    "
};
