/* XPM */
static char *_940582cc6bd4659db538bdd0ef6df62MBl9IAohDtbIzYlj[] = {
/* columns rows colors chars-per-pixel */
"32 32 138 2 ",
"   c #261D0E",
".  c #2C1D0A",
"X  c #2C210D",
"o  c #33220E",
"O  c #332413",
"+  c #3A2711",
"@  c #3D2911",
"#  c #411C06",
"$  c #421E08",
"%  c #44240E",
"&  c #492611",
"*  c #422C12",
"=  c #4E2B14",
"-  c #402D19",
";  c #522C16",
":  c #552D18",
">  c #46311D",
",  c #4A321F",
"<  c #5D321C",
"1  c #4F3924",
"2  c #533A25",
"3  c #563E2B",
"4  c #603421",
"5  c #653B21",
"6  c #6F3B2A",
"7  c #5C422B",
"8  c #61442B",
"9  c #6D432A",
"0  c #71442A",
"q  c #78482D",
"w  c #674631",
"e  c #6E4732",
"r  c #714233",
"t  c #7C4636",
"y  c #734B33",
"u  c #7C4E33",
"i  c #7F4738",
"p  c #7E4E3E",
"a  c #7F5135",
"s  c #7C533B",
"d  c #7B5B44",
"f  c #694D7D",
"g  c #804636",
"h  c #814F34",
"j  c #804739",
"k  c #8B4C3D",
"l  c #825334",
"z  c #83553A",
"x  c #89573A",
"c  c #8C5A3D",
"v  c #945D3E",
"b  c #804F40",
"n  c #815241",
"m  c #8E5F43",
"M  c #86574E",
"N  c #8D5C48",
"B  c #935D43",
"V  c #8F5E55",
"C  c #8E6046",
"Z  c #8A644D",
"A  c #956144",
"S  c #9C6444",
"D  c #9D674C",
"F  c #9C6A4E",
"G  c #8F6B52",
"H  c #926D54",
"J  c #9A6A53",
"K  c #9D6C5B",
"L  c #957057",
"P  c #9B725C",
"I  c #A36945",
"U  c #A1694D",
"Y  c #A5704F",
"T  c #A16D51",
"R  c #AB7456",
"E  c #AC755B",
"W  c #AA7B5E",
"Q  c #8B636E",
"!  c #996C6D",
"~  c #9E7561",
"^  c #876274",
"/  c #976A71",
"(  c #9B6D70",
")  c #A47765",
"_  c #AB7763",
"`  c #A67963",
"'  c #AC7B64",
"]  c #A5786A",
"[  c #AE7D6B",
"{  c #B27C66",
"}  c #B47D69",
"|  c #A27479",
" . c #AB7E7D",
".. c #B5836C",
"X. c #B8816F",
"o. c #B5896F",
"O. c #BA8B6C",
"+. c #B58571",
"@. c #BB8473",
"#. c #B68A72",
"$. c #BB8D74",
"%. c #BE8F7A",
"&. c #BD947D",
"*. c #C18F7C",
"=. c #C3917D",
"-. c #533E8B",
";. c #5E4683",
":. c #5F4985",
">. c #54408B",
",. c #604785",
"<. c #644A85",
"1. c #6F5380",
"2. c #88749E",
"3. c #8273A9",
"4. c #BB8F83",
"5. c #BE9581",
"6. c #9380A4",
"7. c #9082B2",
"8. c #C69481",
"9. c #C39A86",
"0. c #CAA78E",
"q. c #CCBFCA",
"w. c #D2CCDD",
"e. c #DBD1D4",
"r. c #E1D1C6",
"t. c #E2D2C8",
"y. c #E9DED6",
"u. c #EBE1D9",
"i. c #EDE3DC",
"p. c #EDE4DD",
"a. c #E2DEE6",
"s. c #EEE7E1",
"d. c #E3E0E9",
"f. c #E4E1EA",
"g. c #F0E9E2",
"h. c #FAFAF6",
"j. c #FBFDF9",
"k. c #FCFEFB",
/* pixels */
"X X X X . . . . . . . . . . . .                 . . . . . . . . ",
"X X X X . . . . . . . . . . . .                 . . . . . . . . ",
"X X X X . . . . . . . . . . . .                 . . . . . . . . ",
"X X X . . . . . . . . . . . . . . . . . . . . . . . . . . . . . ",
". . . . . . . . . . . . O O O O + @ @ @ @ @ @ + o . . . . . . . ",
". . . . . . . . . . . . O O O O @ * * * * * * @ o . . . . . . . ",
". . . . . . . . . . . . O O O O @ * * * * * * @ o . . . . . . . ",
". . . o > 1 1 1 1 1 1 2 3 7 7 7 7 7 7 7 8 8 8 7 2 , , > + . . . ",
". . . - d G G H H H H L P ~ ~ ~ P P P P P P P J Z m m s 2 O O O ",
". . . > P o.o.o.$.$.$.%.=.8.8.8.%.%.%.%.$.%.%.#.{ E E J w O O O ",
". . . > P o.o.o.$.$.$.%.=.8.8.8.%.$.$.$.$.$.$.#.{ E E F w O O O ",
"> > > 7 P o...o.#.#.#.#.%.=.=.*.#.#.o.#.$.$.$.#.{ R R F y , , , ",
"Z Z Z H ' ................+.+.+.` ` ` ` #.$.$.o.W T T F C z z z ",
"' ' ' ' ........' ' ' ' [ [ [ [ ~ P P ~ ..$.$.o.E F F F F F F F ",
"' ' ' ' ........' ' ' ' [ [ [ [ ~ P P P ..$.$.o.E F F F F F F F ",
"' ' ' { #.$.$.+.[ ) ) ] [ [ [ [ ) P P ~ $.&.&.$.` J J J J F F F ",
"......5.t.s.s.q.2.:.:.1.( { { { ..o.o.o.r.g.g.e.6.;.;.f Q _ _ _ ",
"......9.i.j.j.w.3.-.-.<./ { { { #.$.$.#.u.k.j.d.7.-.-.,.^ ' ' ' ",
"......9.p.k.k.w.3.-.-.<./ { { { #.$.$.#.u.k.k.f.7.-.-.:.^ ' ' ' ",
"......9.u.h.h.w.3.-.>.<./ { { { o.#.#.+.y.h.h.a.7.-.>.,.^ _ _ _ ",
"U U U R %.9.9.4. .| | ! M p p p n z n n &.0.0.9.] V V V N c c c ",
"S S S U E { { } X.@.@._ n r r r r r r r W O.O.O.R I I S c l l l ",
"S S S U E { { } X.@.@._ n r r r r r r r W O.O.O.R I I S v l l l ",
"S S S D E _ _ _ _ _ _ K b r r r r r r r K ' ' W Y I I S c l l l ",
"A A A A D U U A s e e y t j j j j j j i y y y y c S S A c z z z ",
"m m m B B B B l < % % ; q k k k k k k k : % % = q v v v c z z z ",
"m m m B B B B h < % % ; q k k k k k k k : % % ; q v v v c z z z ",
"c c c c c c c u < % % ; 6 g g g g g g t ; % % = q v v v x z z z ",
"a a a a u u u 0 : % % & : < < < 4 4 4 4 & % % = 0 c c x z a a a ",
"0 0 0 0 0 0 0 5 = % % % $ # # # % % % % % % % = 9 z z z a u u u ",
"0 0 0 0 0 0 0 5 = % % % $ # # # % % % % % % % = 9 z z z a u u u ",
"0 0 0 0 0 0 0 5 = % % % $ # # # % % % % % % % = 9 z z z a u u u "
};
