/* XPM */
static char *result[] = {
/* columns rows colors chars-per-pixel */
"32 32 62 1 ",
"  c gray63",
". c #9B9B9B",
"X c gray61",
"o c gray64",
"O c #929292",
"+ c #888888",
"@ c gray56",
"# c gray60",
"$ c #989898",
"% c #939393",
"& c #A2A2A2",
"* c #898989",
"= c #909090",
"- c #AAAAAA",
"; c #C0C0C0",
": c gray",
"> c gray74",
", c gray57",
"< c gray67",
"1 c #C1C1C1",
"2 c #9D9D9D",
"3 c #ACACAC",
"4 c gray76",
"5 c gray75",
"6 c gray78",
"7 c #CBCBCB",
"8 c gray85",
"9 c gray81",
"0 c #CECECE",
"q c gray73",
"w c #A9A9A9",
"e c gray80",
"r c #CACACA",
"t c gray77",
"y c #AFAFAF",
"u c gray69",
"i c #BBBBBB",
"p c #C3C3C3",
"a c #B9B9B9",
"s c gray79",
"d c gray30",
"f c #4B4B4B",
"g c #4E4E4E",
"h c #4C4C4C",
"j c gray72",
"k c #494949",
"l c gray29",
"z c #848484",
"x c #838383",
"c c #C8C8C8",
"v c gray66",
"b c gray51",
"n c #818181",
"m c #9F9F9F",
"M c gray62",
"N c gray50",
"B c gray52",
"V c gray58",
"C c #808080",
"Z c #868686",
"A c #7E7E7E",
"S c gray53",
/* pixels */
"    ...XooooOOOO++++@@@@....###$",
"    ...XooooOOO%++++@@@@....###$",
"    ...XooooOOOO++++@@@@....###$",
"    ...Xooo&OOOO****====....#$$$",
"...........X----;;;;:::>....OOO,",
"...........X---<1111:::>....OOO,",
"...........X---<1111:::>....OOO,",
"....222X222233331444555:2XXX%OOO",
"...X66667777888899999990qqqq---w",
"...X6666777e888899999990qqqq---w",
"...X6666777e888899999990qqqq---w",
".XXX6666rrr7888890009990qqqq---w",
"qqqqttttqqqq1111yyyu777r<------w",
"qqqqttttqqqq1111yyyu777r-------w",
"qqqqttttqqqq1111yyyu777r-------w",
"iiiqppp4aaaa1111uuuurrrswwww-<<-",
"tttpdffffffgpttt777rghhfffffjqqq",
"ttt4fkkkkkkhpttt777rhkkkkkklaqqq",
"ttt4fkkkkkkhpttt777rhkkkkkklaqqq",
"ttt4flllllld4pptrrrrhlllkkklaqqq",
"wwww:555sss6zxxxxxxz6sscwvvv====",
"vvvw1114777sxbbbbbbxr77r----@@@@",
"vvvw1114777sxbbbbbbxr77r----@@@@",
"vvvv555;sss6bnnnnnnb6sscwwwv=@@@",
"mMMMffffffffllllllllffffllll,OO,",
"MMM2lkkkkkkkkkkkkkkkkkkkkkkl,OO,",
"MMM2lkkkkkkkkkkkkkkkkkkkkkkl,OO,",
"MMM2llllllllllllllllllllllll,OO,",
"zzzzNNNNzzzzzzzB,,,,zzzz%VV%*+++",
"bbbbNNNCBBBBBBBZOOOOBBBBVVVV++++",
"bbbbNNNCBBBBBBBZOOOOBBBBVVVV++++",
"bbbbAAANzzzzzzzB,,,,BzzzVVVV+SSS"
};
